<mxfile host="app.diagrams.net" modified="2022-11-02T06:47:36.017Z" agent="5.0 (Macintosh; Intel Mac OS X 10_15_7) AppleWebKit/537.36 (KHTML, like Gecko) Chrome/106.0.0.0 Safari/537.36" etag="UhGFGUDOpm8j2FgBXIAO" version="20.5.1" type="github" pages="2">
  <diagram id="54Kl8-m6Fb-fgZIuGajU" name="Page-1">
    <mxGraphModel dx="983" dy="492" grid="1" gridSize="10" guides="1" tooltips="1" connect="1" arrows="1" fold="1" page="1" pageScale="1" pageWidth="850" pageHeight="1100" math="0" shadow="0">
      <root>
        <mxCell id="0" />
        <mxCell id="1" parent="0" />
        <mxCell id="NYi3-RQBakGW3gtMBBVw-41" value="" style="rounded=0;whiteSpace=wrap;html=1;fillColor=#006666;" vertex="1" parent="1">
          <mxGeometry x="738.19" y="740" width="100" height="50" as="geometry" />
        </mxCell>
        <mxCell id="NYi3-RQBakGW3gtMBBVw-40" value="" style="rounded=0;whiteSpace=wrap;html=1;fillColor=#006666;" vertex="1" parent="1">
          <mxGeometry x="733.19" y="595" width="110" height="50" as="geometry" />
        </mxCell>
        <mxCell id="NYi3-RQBakGW3gtMBBVw-1" value="" style="rounded=0;whiteSpace=wrap;html=1;fillColor=#006666;" vertex="1" parent="1">
          <mxGeometry x="40" y="650" width="80" height="170" as="geometry" />
        </mxCell>
        <mxCell id="NYi3-RQBakGW3gtMBBVw-2" value="0:{[0]}" style="rounded=0;whiteSpace=wrap;html=1;fillColor=#FFB570;" vertex="1" parent="1">
          <mxGeometry x="50" y="660" width="60" height="30" as="geometry" />
        </mxCell>
        <mxCell id="NYi3-RQBakGW3gtMBBVw-3" value="10:{[3]}" style="rounded=0;whiteSpace=wrap;html=1;fillColor=#FF9933;" vertex="1" parent="1">
          <mxGeometry x="50" y="780" width="60" height="30" as="geometry" />
        </mxCell>
        <mxCell id="NYi3-RQBakGW3gtMBBVw-4" value="1:{[1]}" style="rounded=0;whiteSpace=wrap;html=1;fillColor=#FF9933;" vertex="1" parent="1">
          <mxGeometry x="50" y="700" width="60" height="30" as="geometry" />
        </mxCell>
        <mxCell id="NYi3-RQBakGW3gtMBBVw-5" value="{[2]}" style="rounded=0;whiteSpace=wrap;html=1;" vertex="1" parent="1">
          <mxGeometry x="50" y="740" width="60" height="30" as="geometry" />
        </mxCell>
        <mxCell id="NYi3-RQBakGW3gtMBBVw-13" value="" style="rounded=0;whiteSpace=wrap;html=1;fillColor=#CCCCCC;" vertex="1" parent="1">
          <mxGeometry x="140" y="725" width="80" height="50" as="geometry" />
        </mxCell>
        <mxCell id="NYi3-RQBakGW3gtMBBVw-14" value="{[2,t]}" style="rounded=0;whiteSpace=wrap;html=1;" vertex="1" parent="1">
          <mxGeometry x="150" y="735" width="60" height="30" as="geometry" />
        </mxCell>
        <mxCell id="NYi3-RQBakGW3gtMBBVw-15" value="" style="rounded=0;whiteSpace=wrap;html=1;fillColor=#006666;" vertex="1" parent="1">
          <mxGeometry x="250" y="640" width="80" height="170" as="geometry" />
        </mxCell>
        <mxCell id="NYi3-RQBakGW3gtMBBVw-16" value="{[2,t,0]}" style="rounded=0;whiteSpace=wrap;html=1;" vertex="1" parent="1">
          <mxGeometry x="260" y="650" width="60" height="30" as="geometry" />
        </mxCell>
        <mxCell id="NYi3-RQBakGW3gtMBBVw-17" value="9:{[2,t,4]}" style="rounded=0;whiteSpace=wrap;html=1;fillColor=#FF9933;" vertex="1" parent="1">
          <mxGeometry x="260" y="770" width="60" height="30" as="geometry" />
        </mxCell>
        <mxCell id="NYi3-RQBakGW3gtMBBVw-18" value="{[2,t,3]}" style="rounded=0;whiteSpace=wrap;html=1;" vertex="1" parent="1">
          <mxGeometry x="260" y="730" width="60" height="30" as="geometry" />
        </mxCell>
        <mxCell id="NYi3-RQBakGW3gtMBBVw-19" value="7:{[2,t,1]}" style="rounded=0;whiteSpace=wrap;html=1;fillColor=#FF9933;" vertex="1" parent="1">
          <mxGeometry x="260" y="690" width="60" height="30" as="geometry" />
        </mxCell>
        <mxCell id="NYi3-RQBakGW3gtMBBVw-21" value="" style="endArrow=classic;html=1;rounded=0;entryX=0;entryY=0.5;entryDx=0;entryDy=0;" edge="1" parent="1" target="NYi3-RQBakGW3gtMBBVw-13">
          <mxGeometry width="50" height="50" relative="1" as="geometry">
            <mxPoint x="110" y="760" as="sourcePoint" />
            <mxPoint x="140" y="740" as="targetPoint" />
          </mxGeometry>
        </mxCell>
        <mxCell id="NYi3-RQBakGW3gtMBBVw-22" value="" style="endArrow=classic;html=1;rounded=0;entryX=0;entryY=0.5;entryDx=0;entryDy=0;" edge="1" parent="1">
          <mxGeometry width="50" height="50" relative="1" as="geometry">
            <mxPoint x="210" y="745" as="sourcePoint" />
            <mxPoint x="250" y="720" as="targetPoint" />
          </mxGeometry>
        </mxCell>
        <mxCell id="NYi3-RQBakGW3gtMBBVw-23" value="" style="rounded=0;whiteSpace=wrap;html=1;fillColor=#006666;" vertex="1" parent="1">
          <mxGeometry x="480" y="590" width="100" height="130" as="geometry" />
        </mxCell>
        <mxCell id="NYi3-RQBakGW3gtMBBVw-24" value="{[2,t,0,p,1]}" style="rounded=0;whiteSpace=wrap;html=1;" vertex="1" parent="1">
          <mxGeometry x="490" y="640" width="80" height="30" as="geometry" />
        </mxCell>
        <mxCell id="NYi3-RQBakGW3gtMBBVw-25" value="{[2,t,0,p,0]}" style="rounded=0;whiteSpace=wrap;html=1;fillColor=#FF9933;" vertex="1" parent="1">
          <mxGeometry x="490" y="600" width="80" height="30" as="geometry" />
        </mxCell>
        <mxCell id="NYi3-RQBakGW3gtMBBVw-28" value="" style="endArrow=classic;html=1;rounded=0;exitX=1;exitY=0.5;exitDx=0;exitDy=0;" edge="1" parent="1" source="NYi3-RQBakGW3gtMBBVw-16">
          <mxGeometry width="50" height="50" relative="1" as="geometry">
            <mxPoint x="350" y="705" as="sourcePoint" />
            <mxPoint x="360" y="670" as="targetPoint" />
            <Array as="points">
              <mxPoint x="360" y="670" />
            </Array>
          </mxGeometry>
        </mxCell>
        <mxCell id="NYi3-RQBakGW3gtMBBVw-29" value="{[2,t,0,p,2]}" style="rounded=0;whiteSpace=wrap;html=1;fillColor=#FF9933;" vertex="1" parent="1">
          <mxGeometry x="490" y="680" width="80" height="30" as="geometry" />
        </mxCell>
        <mxCell id="NYi3-RQBakGW3gtMBBVw-31" value="" style="rounded=0;whiteSpace=wrap;html=1;fillColor=#006666;" vertex="1" parent="1">
          <mxGeometry x="480" y="740" width="100" height="40" as="geometry" />
        </mxCell>
        <mxCell id="NYi3-RQBakGW3gtMBBVw-32" value="{[2,t,0,u,0]}" style="rounded=0;whiteSpace=wrap;html=1;fillColor=#FF9933;" vertex="1" parent="1">
          <mxGeometry x="490" y="745" width="80" height="30" as="geometry" />
        </mxCell>
        <mxCell id="NYi3-RQBakGW3gtMBBVw-33" value="" style="rounded=0;whiteSpace=wrap;html=1;fillColor=#006666;" vertex="1" parent="1">
          <mxGeometry x="610.69" y="660" width="100" height="90" as="geometry" />
        </mxCell>
        <mxCell id="NYi3-RQBakGW3gtMBBVw-34" value="{[2,t,0,p,1]}" style="rounded=0;whiteSpace=wrap;html=1;" vertex="1" parent="1">
          <mxGeometry x="620.69" y="710" width="80" height="30" as="geometry" />
        </mxCell>
        <mxCell id="NYi3-RQBakGW3gtMBBVw-35" value="{[2,t,0,p,0]}" style="rounded=0;whiteSpace=wrap;html=1;" vertex="1" parent="1">
          <mxGeometry x="620.69" y="670" width="80" height="30" as="geometry" />
        </mxCell>
        <mxCell id="NYi3-RQBakGW3gtMBBVw-37" value="" style="endArrow=classic;html=1;rounded=0;" edge="1" parent="1">
          <mxGeometry width="50" height="50" relative="1" as="geometry">
            <mxPoint x="610" y="655" as="sourcePoint" />
            <mxPoint x="610" y="655" as="targetPoint" />
          </mxGeometry>
        </mxCell>
        <mxCell id="NYi3-RQBakGW3gtMBBVw-38" value="{[2,t,0,p,1,q,0]}" style="rounded=0;whiteSpace=wrap;html=1;fillColor=#FF9933;" vertex="1" parent="1">
          <mxGeometry x="740.69" y="605" width="95" height="30" as="geometry" />
        </mxCell>
        <mxCell id="NYi3-RQBakGW3gtMBBVw-39" value="{[2,t,0,p,1,v,0]}" style="rounded=0;whiteSpace=wrap;html=1;" vertex="1" parent="1">
          <mxGeometry x="748.19" y="750" width="85" height="30" as="geometry" />
        </mxCell>
        <mxCell id="NYi3-RQBakGW3gtMBBVw-42" value="" style="endArrow=classic;html=1;rounded=0;entryX=0;entryY=0.75;entryDx=0;entryDy=0;exitX=0.75;exitY=0;exitDx=0;exitDy=0;" edge="1" parent="1" source="NYi3-RQBakGW3gtMBBVw-33" target="NYi3-RQBakGW3gtMBBVw-40">
          <mxGeometry width="50" height="50" relative="1" as="geometry">
            <mxPoint x="690.69" y="680" as="sourcePoint" />
            <mxPoint x="730.69" y="655" as="targetPoint" />
          </mxGeometry>
        </mxCell>
        <mxCell id="NYi3-RQBakGW3gtMBBVw-43" value="" style="endArrow=classic;html=1;rounded=0;entryX=0;entryY=0.5;entryDx=0;entryDy=0;exitX=1;exitY=0.5;exitDx=0;exitDy=0;" edge="1" parent="1" source="NYi3-RQBakGW3gtMBBVw-34" target="NYi3-RQBakGW3gtMBBVw-41">
          <mxGeometry width="50" height="50" relative="1" as="geometry">
            <mxPoint x="690.69" y="717.5" as="sourcePoint" />
            <mxPoint x="730.69" y="692.5" as="targetPoint" />
          </mxGeometry>
        </mxCell>
        <mxCell id="NYi3-RQBakGW3gtMBBVw-47" value="" style="rounded=0;whiteSpace=wrap;html=1;fillColor=#CCCCCC;" vertex="1" parent="1">
          <mxGeometry x="330" y="835" width="100" height="40" as="geometry" />
        </mxCell>
        <mxCell id="NYi3-RQBakGW3gtMBBVw-48" value="{[2,t,3,s]}" style="rounded=0;whiteSpace=wrap;html=1;" vertex="1" parent="1">
          <mxGeometry x="340" y="840" width="80" height="30" as="geometry" />
        </mxCell>
        <mxCell id="NYi3-RQBakGW3gtMBBVw-49" value="" style="rounded=0;whiteSpace=wrap;html=1;fillColor=#006666;" vertex="1" parent="1">
          <mxGeometry x="470" y="855" width="100" height="40" as="geometry" />
        </mxCell>
        <mxCell id="NYi3-RQBakGW3gtMBBVw-50" value="{[2,t,3,s,0]}" style="rounded=0;whiteSpace=wrap;html=1;" vertex="1" parent="1">
          <mxGeometry x="480" y="860" width="80" height="30" as="geometry" />
        </mxCell>
        <mxCell id="NYi3-RQBakGW3gtMBBVw-51" value="" style="rounded=0;whiteSpace=wrap;html=1;fillColor=#CCCCCC;" vertex="1" parent="1">
          <mxGeometry x="580" y="800" width="100" height="40" as="geometry" />
        </mxCell>
        <mxCell id="NYi3-RQBakGW3gtMBBVw-52" value="{[2,t,3,s,0,r]}" style="rounded=0;whiteSpace=wrap;html=1;" vertex="1" parent="1">
          <mxGeometry x="590" y="805" width="80" height="30" as="geometry" />
        </mxCell>
        <mxCell id="NYi3-RQBakGW3gtMBBVw-53" value="" style="rounded=0;whiteSpace=wrap;html=1;fillColor=#006666;" vertex="1" parent="1">
          <mxGeometry x="705" y="860" width="115" height="50" as="geometry" />
        </mxCell>
        <mxCell id="NYi3-RQBakGW3gtMBBVw-54" value="{[2,t,3, s,0,r,0]}" style="rounded=0;whiteSpace=wrap;html=1;" vertex="1" parent="1">
          <mxGeometry x="715" y="865" width="95" height="35" as="geometry" />
        </mxCell>
        <mxCell id="NYi3-RQBakGW3gtMBBVw-55" value="" style="endArrow=classic;html=1;rounded=0;entryX=0.113;entryY=-0.021;entryDx=0;entryDy=0;entryPerimeter=0;" edge="1" parent="1" target="NYi3-RQBakGW3gtMBBVw-47">
          <mxGeometry width="50" height="50" relative="1" as="geometry">
            <mxPoint x="310" y="810" as="sourcePoint" />
            <mxPoint x="350" y="785" as="targetPoint" />
          </mxGeometry>
        </mxCell>
        <mxCell id="NYi3-RQBakGW3gtMBBVw-59" value="" style="endArrow=classic;html=1;rounded=0;entryX=0;entryY=0.375;entryDx=0;entryDy=0;entryPerimeter=0;exitX=1;exitY=0.75;exitDx=0;exitDy=0;" edge="1" parent="1" source="NYi3-RQBakGW3gtMBBVw-48" target="NYi3-RQBakGW3gtMBBVw-49">
          <mxGeometry width="50" height="50" relative="1" as="geometry">
            <mxPoint x="430" y="855" as="sourcePoint" />
            <mxPoint x="460" y="870" as="targetPoint" />
          </mxGeometry>
        </mxCell>
        <mxCell id="NYi3-RQBakGW3gtMBBVw-60" value="" style="endArrow=classic;html=1;rounded=0;entryX=0;entryY=0.5;entryDx=0;entryDy=0;exitX=0.402;exitY=-0.021;exitDx=0;exitDy=0;exitPerimeter=0;" edge="1" parent="1" source="NYi3-RQBakGW3gtMBBVw-50" target="NYi3-RQBakGW3gtMBBVw-51">
          <mxGeometry width="50" height="50" relative="1" as="geometry">
            <mxPoint x="510" y="855.0033333333334" as="sourcePoint" />
            <mxPoint x="550" y="861.67" as="targetPoint" />
          </mxGeometry>
        </mxCell>
        <mxCell id="NYi3-RQBakGW3gtMBBVw-61" value="" style="endArrow=classic;html=1;rounded=0;entryX=0;entryY=0.5;entryDx=0;entryDy=0;exitX=0.584;exitY=1.029;exitDx=0;exitDy=0;exitPerimeter=0;" edge="1" parent="1" source="NYi3-RQBakGW3gtMBBVw-52" target="NYi3-RQBakGW3gtMBBVw-53">
          <mxGeometry width="50" height="50" relative="1" as="geometry">
            <mxPoint x="630" y="840.0033333333336" as="sourcePoint" />
            <mxPoint x="700" y="805" as="targetPoint" />
          </mxGeometry>
        </mxCell>
        <mxCell id="NYi3-RQBakGW3gtMBBVw-62" value="" style="rounded=0;whiteSpace=wrap;html=1;fillColor=#CCCCCC;" vertex="1" parent="1">
          <mxGeometry x="360" y="635" width="80" height="90" as="geometry" />
        </mxCell>
        <mxCell id="NYi3-RQBakGW3gtMBBVw-63" value="{[2,t,0,p]}" style="rounded=0;whiteSpace=wrap;html=1;" vertex="1" parent="1">
          <mxGeometry x="370" y="645" width="60" height="30" as="geometry" />
        </mxCell>
        <mxCell id="NYi3-RQBakGW3gtMBBVw-64" value="{[2,t,0,u]}" style="rounded=0;whiteSpace=wrap;html=1;" vertex="1" parent="1">
          <mxGeometry x="370" y="685" width="60" height="30" as="geometry" />
        </mxCell>
        <mxCell id="NYi3-RQBakGW3gtMBBVw-66" value="" style="endArrow=classic;html=1;rounded=0;entryX=0;entryY=0.25;entryDx=0;entryDy=0;" edge="1" parent="1" target="NYi3-RQBakGW3gtMBBVw-23">
          <mxGeometry width="50" height="50" relative="1" as="geometry">
            <mxPoint x="425" y="645" as="sourcePoint" />
            <mxPoint x="455" y="635" as="targetPoint" />
          </mxGeometry>
        </mxCell>
        <mxCell id="NYi3-RQBakGW3gtMBBVw-68" value="" style="endArrow=classic;html=1;rounded=0;entryX=0;entryY=0.75;entryDx=0;entryDy=0;" edge="1" parent="1" target="NYi3-RQBakGW3gtMBBVw-31">
          <mxGeometry width="50" height="50" relative="1" as="geometry">
            <mxPoint x="410" y="715" as="sourcePoint" />
            <mxPoint x="440" y="705" as="targetPoint" />
          </mxGeometry>
        </mxCell>
        <mxCell id="NYi3-RQBakGW3gtMBBVw-70" value="" style="endArrow=classic;html=1;rounded=0;entryX=-0.009;entryY=0.384;entryDx=0;entryDy=0;entryPerimeter=0;" edge="1" parent="1" target="NYi3-RQBakGW3gtMBBVw-33">
          <mxGeometry width="50" height="50" relative="1" as="geometry">
            <mxPoint x="570.69" y="655" as="sourcePoint" />
            <mxPoint x="610.69" y="630" as="targetPoint" />
          </mxGeometry>
        </mxCell>
        <mxCell id="NYi3-RQBakGW3gtMBBVw-71" value="Statement" style="rounded=0;whiteSpace=wrap;html=1;fillColor=#FF9933;" vertex="1" parent="1">
          <mxGeometry x="40" y="865" width="100" height="25" as="geometry" />
        </mxCell>
        <mxCell id="NYi3-RQBakGW3gtMBBVw-72" value="Vector: ordered" style="rounded=0;whiteSpace=wrap;html=1;fillColor=#006666;" vertex="1" parent="1">
          <mxGeometry x="40" y="910" width="100" height="25" as="geometry" />
        </mxCell>
      </root>
    </mxGraphModel>
  </diagram>
  <diagram id="vndcMozpVzzlSdhimIvA" name="Page-2">
    <mxGraphModel dx="864" dy="467" grid="1" gridSize="10" guides="1" tooltips="1" connect="1" arrows="1" fold="1" page="1" pageScale="1" pageWidth="850" pageHeight="1100" math="0" shadow="0">
      <root>
        <mxCell id="0" />
        <mxCell id="1" parent="0" />
        <mxCell id="e4TT9U7eFprRtSclJWI2-17" style="edgeStyle=orthogonalEdgeStyle;rounded=0;orthogonalLoop=1;jettySize=auto;html=1;entryX=0.5;entryY=0;entryDx=0;entryDy=0;" edge="1" parent="1" source="e4TT9U7eFprRtSclJWI2-3" target="e4TT9U7eFprRtSclJWI2-4">
          <mxGeometry relative="1" as="geometry" />
        </mxCell>
        <mxCell id="e4TT9U7eFprRtSclJWI2-3" value="" style="rounded=0;whiteSpace=wrap;html=1;fillColor=#FFFFFF;" vertex="1" parent="1">
          <mxGeometry x="320" y="40" width="100" height="50" as="geometry" />
        </mxCell>
        <mxCell id="e4TT9U7eFprRtSclJWI2-18" style="edgeStyle=orthogonalEdgeStyle;rounded=0;orthogonalLoop=1;jettySize=auto;html=1;entryX=0.5;entryY=0;entryDx=0;entryDy=0;" edge="1" parent="1" source="e4TT9U7eFprRtSclJWI2-4" target="e4TT9U7eFprRtSclJWI2-7">
          <mxGeometry relative="1" as="geometry" />
        </mxCell>
        <mxCell id="e4TT9U7eFprRtSclJWI2-4" value="" style="rounded=0;whiteSpace=wrap;html=1;fillColor=#FFFFFF;" vertex="1" parent="1">
          <mxGeometry x="320" y="130" width="100" height="50" as="geometry" />
        </mxCell>
        <mxCell id="e4TT9U7eFprRtSclJWI2-6" value="" style="rounded=0;whiteSpace=wrap;html=1;fillColor=#FFFFFF;" vertex="1" parent="1">
          <mxGeometry x="240" y="320" width="100" height="50" as="geometry" />
        </mxCell>
        <mxCell id="e4TT9U7eFprRtSclJWI2-7" value="" style="rounded=0;whiteSpace=wrap;html=1;fillColor=#FFFFFF;" vertex="1" parent="1">
          <mxGeometry x="320" y="220" width="100" height="50" as="geometry" />
        </mxCell>
        <mxCell id="e4TT9U7eFprRtSclJWI2-8" value="" style="rounded=0;whiteSpace=wrap;html=1;fillColor=#FFFFFF;" vertex="1" parent="1">
          <mxGeometry x="400" y="310" width="100" height="50" as="geometry" />
        </mxCell>
        <mxCell id="e4TT9U7eFprRtSclJWI2-37" style="edgeStyle=orthogonalEdgeStyle;rounded=0;orthogonalLoop=1;jettySize=auto;html=1;entryX=0.5;entryY=0;entryDx=0;entryDy=0;" edge="1" parent="1" source="e4TT9U7eFprRtSclJWI2-9" target="e4TT9U7eFprRtSclJWI2-15">
          <mxGeometry relative="1" as="geometry" />
        </mxCell>
        <mxCell id="e4TT9U7eFprRtSclJWI2-9" value="" style="rounded=0;whiteSpace=wrap;html=1;fillColor=#FFFFFF;" vertex="1" parent="1">
          <mxGeometry x="310" y="525" width="140" height="50" as="geometry" />
        </mxCell>
        <mxCell id="e4TT9U7eFprRtSclJWI2-10" value="" style="rounded=0;whiteSpace=wrap;html=1;fillColor=#FFFFFF;" vertex="1" parent="1">
          <mxGeometry x="530" y="250" width="100" height="50" as="geometry" />
        </mxCell>
        <mxCell id="e4TT9U7eFprRtSclJWI2-35" style="edgeStyle=orthogonalEdgeStyle;rounded=0;orthogonalLoop=1;jettySize=auto;html=1;entryX=0.5;entryY=0;entryDx=0;entryDy=0;" edge="1" parent="1" source="e4TT9U7eFprRtSclJWI2-13" target="e4TT9U7eFprRtSclJWI2-9">
          <mxGeometry relative="1" as="geometry" />
        </mxCell>
        <mxCell id="e4TT9U7eFprRtSclJWI2-13" value="" style="rounded=0;whiteSpace=wrap;html=1;fillColor=#FFFFFF;" vertex="1" parent="1">
          <mxGeometry x="310" y="420" width="140" height="50" as="geometry" />
        </mxCell>
        <mxCell id="e4TT9U7eFprRtSclJWI2-14" value="" style="rounded=0;whiteSpace=wrap;html=1;fillColor=#FFFFFF;" vertex="1" parent="1">
          <mxGeometry x="500" y="620" width="100" height="50" as="geometry" />
        </mxCell>
        <mxCell id="e4TT9U7eFprRtSclJWI2-29" style="edgeStyle=orthogonalEdgeStyle;rounded=0;orthogonalLoop=1;jettySize=auto;html=1;exitX=0.5;exitY=1;exitDx=0;exitDy=0;entryX=0.5;entryY=0;entryDx=0;entryDy=0;" edge="1" parent="1" source="e4TT9U7eFprRtSclJWI2-15" target="e4TT9U7eFprRtSclJWI2-16">
          <mxGeometry relative="1" as="geometry" />
        </mxCell>
        <mxCell id="e4TT9U7eFprRtSclJWI2-15" value="" style="rounded=0;whiteSpace=wrap;html=1;fillColor=#FFFFFF;" vertex="1" parent="1">
          <mxGeometry x="330" y="620" width="100" height="50" as="geometry" />
        </mxCell>
        <mxCell id="e4TT9U7eFprRtSclJWI2-43" style="edgeStyle=orthogonalEdgeStyle;rounded=0;orthogonalLoop=1;jettySize=auto;html=1;entryX=0.5;entryY=0;entryDx=0;entryDy=0;" edge="1" parent="1" source="e4TT9U7eFprRtSclJWI2-16" target="e4TT9U7eFprRtSclJWI2-40">
          <mxGeometry relative="1" as="geometry" />
        </mxCell>
        <mxCell id="e4TT9U7eFprRtSclJWI2-16" value="" style="rounded=0;whiteSpace=wrap;html=1;fillColor=#FFFFFF;" vertex="1" parent="1">
          <mxGeometry x="330" y="720" width="100" height="50" as="geometry" />
        </mxCell>
        <mxCell id="e4TT9U7eFprRtSclJWI2-30" value="" style="endArrow=classic;html=1;rounded=0;exitX=0.116;exitY=1.02;exitDx=0;exitDy=0;exitPerimeter=0;entryX=0.6;entryY=0;entryDx=0;entryDy=0;entryPerimeter=0;" edge="1" parent="1" source="e4TT9U7eFprRtSclJWI2-7" target="e4TT9U7eFprRtSclJWI2-6">
          <mxGeometry width="50" height="50" relative="1" as="geometry">
            <mxPoint x="290" y="320" as="sourcePoint" />
            <mxPoint x="250" y="320" as="targetPoint" />
          </mxGeometry>
        </mxCell>
        <mxCell id="e4TT9U7eFprRtSclJWI2-31" value="" style="endArrow=classic;html=1;rounded=0;exitX=0.647;exitY=0.997;exitDx=0;exitDy=0;exitPerimeter=0;" edge="1" parent="1" source="e4TT9U7eFprRtSclJWI2-7" target="e4TT9U7eFprRtSclJWI2-8">
          <mxGeometry width="50" height="50" relative="1" as="geometry">
            <mxPoint x="341.5999999999999" y="281" as="sourcePoint" />
            <mxPoint x="290" y="350" as="targetPoint" />
          </mxGeometry>
        </mxCell>
        <mxCell id="e4TT9U7eFprRtSclJWI2-32" value="" style="endArrow=classic;html=1;rounded=0;exitX=0.647;exitY=0.997;exitDx=0;exitDy=0;exitPerimeter=0;entryX=0.13;entryY=-0.02;entryDx=0;entryDy=0;entryPerimeter=0;" edge="1" parent="1" target="e4TT9U7eFprRtSclJWI2-10">
          <mxGeometry width="50" height="50" relative="1" as="geometry">
            <mxPoint x="420.00000000000006" y="160.00000000000003" as="sourcePoint" />
            <mxPoint x="468.14287966368903" y="230.15" as="targetPoint" />
          </mxGeometry>
        </mxCell>
        <mxCell id="e4TT9U7eFprRtSclJWI2-33" value="" style="endArrow=classic;html=1;rounded=0;exitX=0.647;exitY=0.997;exitDx=0;exitDy=0;exitPerimeter=0;entryX=0.196;entryY=-0.05;entryDx=0;entryDy=0;entryPerimeter=0;" edge="1" parent="1" target="e4TT9U7eFprRtSclJWI2-13">
          <mxGeometry width="50" height="50" relative="1" as="geometry">
            <mxPoint x="299.76000000000005" y="370" as="sourcePoint" />
            <mxPoint x="340.00244052187264" y="410.1500000000001" as="targetPoint" />
          </mxGeometry>
        </mxCell>
        <mxCell id="e4TT9U7eFprRtSclJWI2-34" value="" style="endArrow=classic;html=1;rounded=0;entryX=0.661;entryY=0.015;entryDx=0;entryDy=0;entryPerimeter=0;" edge="1" parent="1" target="e4TT9U7eFprRtSclJWI2-13">
          <mxGeometry width="50" height="50" relative="1" as="geometry">
            <mxPoint x="450" y="360" as="sourcePoint" />
            <mxPoint x="410" y="440" as="targetPoint" />
          </mxGeometry>
        </mxCell>
        <mxCell id="e4TT9U7eFprRtSclJWI2-39" value="" style="endArrow=classic;html=1;rounded=0;exitX=0.25;exitY=1;exitDx=0;exitDy=0;" edge="1" parent="1" source="e4TT9U7eFprRtSclJWI2-10">
          <mxGeometry width="50" height="50" relative="1" as="geometry">
            <mxPoint x="580" y="270" as="sourcePoint" />
            <mxPoint x="450" y="520" as="targetPoint" />
          </mxGeometry>
        </mxCell>
        <mxCell id="e4TT9U7eFprRtSclJWI2-40" value="" style="rounded=0;whiteSpace=wrap;html=1;fillColor=#FFFFFF;" vertex="1" parent="1">
          <mxGeometry x="330" y="810" width="100" height="50" as="geometry" />
        </mxCell>
        <mxCell id="e4TT9U7eFprRtSclJWI2-41" value="" style="endArrow=classic;html=1;rounded=0;exitX=0.969;exitY=1.021;exitDx=0;exitDy=0;exitPerimeter=0;entryX=0.2;entryY=0;entryDx=0;entryDy=0;entryPerimeter=0;" edge="1" parent="1" source="e4TT9U7eFprRtSclJWI2-9" target="e4TT9U7eFprRtSclJWI2-14">
          <mxGeometry width="50" height="50" relative="1" as="geometry">
            <mxPoint x="429.88" y="640" as="sourcePoint" />
            <mxPoint x="470.1224405218726" y="680.15" as="targetPoint" />
          </mxGeometry>
        </mxCell>
        <mxCell id="e4TT9U7eFprRtSclJWI2-42" value="" style="endArrow=classic;html=1;rounded=0;entryX=1;entryY=0.25;entryDx=0;entryDy=0;" edge="1" parent="1" source="e4TT9U7eFprRtSclJWI2-14" target="e4TT9U7eFprRtSclJWI2-16">
          <mxGeometry width="50" height="50" relative="1" as="geometry">
            <mxPoint x="555.6600000000001" y="670.0000000000002" as="sourcePoint" />
            <mxPoint x="630" y="713.95" as="targetPoint" />
          </mxGeometry>
        </mxCell>
      </root>
    </mxGraphModel>
  </diagram>
</mxfile>
